<svg width="132" height="132" viewBox="0 0 132 132" fill="none" xmlns="http://www.w3.org/2000/svg">
<path d="M126.368 46.4263C128.938 54.3539 129.922 62.7101 129.263 71.0179C128.604 79.3257 126.315 87.4224 122.527 94.8456C118.739 102.269 113.526 108.873 107.185 114.282C100.845 119.69 93.5013 123.797 85.5737 126.368C77.6461 128.938 69.2899 129.922 60.9821 129.263C52.6743 128.604 44.5776 126.315 37.1544 122.527C29.7312 118.739 23.1267 113.526 17.7182 107.185C12.3097 100.845 8.20292 93.5013 5.63247 85.5737C3.06202 77.6461 2.07818 69.2899 2.73715 60.9821C3.39611 52.6743 5.68496 44.5776 9.47302 37.1544C13.2611 29.7312 18.4742 23.1267 24.8146 17.7182C31.1551 12.3097 38.4987 8.20292 46.4263 5.63247C54.3539 3.06201 62.7101 2.07818 71.0179 2.73715C79.3257 3.39611 87.4224 5.68497 94.8456 9.47303C102.269 13.2611 108.873 18.4742 114.282 24.8146C119.69 31.1551 123.797 38.4988 126.368 46.4263L126.368 46.4263Z" stroke="#F0F0F0" stroke-width="2"/>
<path d="M126.368 46.4263C130.088 57.9013 130.461 70.199 127.443 81.8784C124.425 93.5578 118.14 104.135 109.326 112.371" stroke="#FACA21" stroke-width="5" stroke-linecap="round" stroke-linejoin="round"/>
<path d="M108.444 113.179C100.184 120.61 90.1189 125.742 79.2538 128.062C68.3888 130.382 57.105 129.81 46.5307 126.401" stroke="#8DC400" stroke-width="5" stroke-linecap="round" stroke-linejoin="round"/>
<path d="M53.0352 128.123C43.4999 126.133 34.5508 121.975 26.8808 115.971C19.2109 109.966 13.0261 102.277 8.8054 93.4981C4.58474 84.7194 2.44154 75.0869 2.54181 65.3467C2.64209 55.6066 4.98314 46.0202 9.38363 37.3302" stroke="#F069C2" stroke-width="5" stroke-linecap="round" stroke-linejoin="round"/>
<path d="M6.54806 43.8001C11.3468 30.949 20.1804 19.9988 31.7254 12.5901C43.2704 5.18131 56.9053 1.71289 70.5872 2.70446" stroke="#5841DA" stroke-width="5" stroke-linecap="round" stroke-linejoin="round"/>
<path d="M72.3878 2.86076C84.9451 4.13118 96.8384 9.11712 106.548 17.1813C116.257 25.2455 123.341 36.0217 126.894 48.1325" stroke="#59DEF0" stroke-width="5" stroke-linecap="round" stroke-linejoin="round"/>
</svg>
