<svg width="40" height="40" viewBox="0 0 40 40" fill="none" xmlns="http://www.w3.org/2000/svg">
<rect width="40" height="40" rx="8" fill="#F0F0F0"/>
<path d="M26.7997 22.8002C25.2897 22.8002 24.0097 21.6802 23.8897 20.2402C23.8097 19.4102 24.1097 18.6002 24.7097 18.0102C25.2097 17.4902 25.9196 17.2002 26.6696 17.2002H28.7597C29.7497 17.2302 30.5097 18.0102 30.5097 18.9702V21.0302C30.5097 21.9902 29.7497 22.7702 28.7897 22.8002H26.7997ZM28.7296 18.7002H26.6797C26.3297 18.7002 26.0097 18.8302 25.7797 19.0702C25.4897 19.3502 25.3497 19.7302 25.3897 20.1102C25.4397 20.7702 26.0797 21.3002 26.7997 21.3002H28.7597C28.8897 21.3002 29.0097 21.1802 29.0097 21.0302V18.9702C29.0097 18.8202 28.8896 18.7102 28.7296 18.7002Z" fill="#5F9E00"/>
<path d="M23.76 29.25H21.26C20.85 29.25 20.51 28.91 20.51 28.5C20.51 28.09 20.85 27.75 21.26 27.75H23.76C26.34 27.75 28.01 26.08 28.01 23.5V22.8H26.8C25.29 22.8 24.01 21.68 23.89 20.24C23.81 19.41 24.11 18.6 24.71 18.01C25.21 17.49 25.92 17.2 26.67 17.2H28V16.5C28 14.16 26.63 12.55 24.41 12.29C24.17 12.25 23.96 12.25 23.75 12.25H14.75C14.51 12.25 14.28 12.27 14.05 12.3C11.85 12.58 10.5 14.18 10.5 16.5V18.5C10.5 18.91 10.16 19.25 9.75 19.25C9.34 19.25 9 18.91 9 18.5V16.5C9 13.42 10.9 11.19 13.85 10.82C14.12 10.78 14.43 10.75 14.75 10.75H23.75C23.99 10.75 24.3 10.76 24.62 10.81C27.57 11.15 29.5 13.39 29.5 16.5V17.95C29.5 18.36 29.16 18.7 28.75 18.7H26.67C26.32 18.7 26 18.83 25.77 19.07C25.48 19.35 25.34 19.73 25.38 20.11C25.43 20.77 26.07 21.3 26.79 21.3H28.76C29.17 21.3 29.51 21.64 29.51 22.05V23.5C29.51 26.94 27.2 29.25 23.76 29.25Z" fill="#5F9E00"/>
<path d="M8.86513 25.5283C9.15505 25.2384 9.63588 25.2384 9.92579 25.5283L13.6381 29.2406L17.3504 25.5283C17.6403 25.2383 18.1212 25.2383 18.4111 25.5283C18.701 25.8182 18.701 26.299 18.4111 26.5889L14.1684 30.8316C13.8785 31.1215 13.3977 31.1215 13.1078 30.8316L8.86513 26.5889C8.57522 26.299 8.57522 25.8182 8.86513 25.5283Z" fill="#5F9E00"/>
<path d="M13.1075 19.1646C13.2419 19.0303 13.4257 18.9454 13.6379 18.9454C14.048 18.9454 14.3874 19.2849 14.3874 19.695L14.3874 30.3016C14.3874 30.7117 14.048 31.0511 13.6379 31.0511C13.2277 31.0511 12.8883 30.7117 12.8883 30.3016L12.8883 19.695C12.8883 19.4828 12.9732 19.299 13.1075 19.1646Z" fill="#5F9E00"/>
</svg>
