<svg width="38" height="38" viewBox="0 0 38 38" fill="none" xmlns="http://www.w3.org/2000/svg">
<path d="M0.657837 2.83419C0.657837 1.63232 1.63214 0.65802 2.834 0.65802H35.1656C36.0481 0.65802 36.8433 1.19104 37.1786 2.0074C37.5139 2.82377 37.3228 3.7619 36.6951 4.38222L36.5849 4.49117L36.2627 4.80969C35.9805 5.08878 35.5665 5.49828 35.0397 6.01975C33.9861 7.0627 32.481 8.55349 30.6757 10.3446C27.5299 13.4655 23.4732 17.4975 19.3046 21.6604L36.3956 33.3706C37.1825 33.9097 37.5266 34.8985 37.2444 35.8096C36.9622 36.7208 36.1195 37.342 35.1656 37.342H12.5542C11.3523 37.342 10.378 36.3677 10.378 35.1658C10.378 33.9639 11.3523 32.9896 12.5542 32.9896H28.1394L16.1736 24.791C11.8535 29.1162 7.63153 33.3688 4.39071 36.6864C3.55088 37.5462 2.17311 37.5623 1.31336 36.7225C0.453614 35.8827 0.437467 34.5049 1.27729 33.6451C4.39069 30.4579 8.39747 26.4199 12.5215 22.2887L10.0392 20.5879C9.50538 20.2222 9.16202 19.6378 9.10234 18.9934C9.04267 18.349 9.27287 17.7115 9.73046 17.254L15.3419 11.6425H5.01017V26.3368C5.01017 27.5386 4.03587 28.5129 2.834 28.5129C1.63214 28.5129 0.657837 27.5386 0.657837 26.3368V9.46631C0.657837 8.26445 1.63214 7.29014 2.834 7.29014H20.5957C21.4758 7.29014 22.2693 7.82035 22.6062 8.63353C22.943 9.4467 22.7568 10.3827 22.1344 11.0051L14.6609 18.4786L15.6517 19.1575C20.0261 14.7872 24.3176 10.5216 27.6103 7.25483C28.4317 6.43995 29.191 5.68717 29.8739 5.01035H2.834C1.63214 5.01035 0.657837 4.03605 0.657837 2.83419Z" fill="#5841DA"/>
</svg>
